<svg xmlns="http://www.w3.org/2000/svg" viewBox="0 0 32 32" width="32" height="32" fill="none">
  <!-- Mesma chama de src/assets/chama.svg (o logo do cabeçalho), reencaixada
       num quadrado e ampliada para preencher a tela: numa aba de 16px sobra
       pouquíssimo pixel, então cada um conta. Fundo transparente. -->
  <defs>
    <linearGradient id="cf" x1="16" y1="0" x2="16" y2="32" gradientUnits="userSpaceOnUse">
      <stop offset="0%" stop-color="#f59e0b"/>
      <stop offset="100%" stop-color="#b45309"/>
    </linearGradient>
    <linearGradient id="cd" x1="16" y1="13" x2="16" y2="31" gradientUnits="userSpaceOnUse">
      <stop offset="0%" stop-color="#fde68a"/>
      <stop offset="100%" stop-color="#f59e0b"/>
    </linearGradient>
  </defs>
  <g transform="translate(3.6 0.5) scale(1.033)">
    <path d="M12.6 0.4c0.4 5.2 3.9 7.2 6.5 10.4 2.1 2.6 2.9 5.3 2.9 8.1 0 6.1-4.5 10.7-10 10.7S2 25 2 18.9c0-3.5 1.4-5.9 3.4-8.1C7.8 8.2 9.3 6.6 9.6 3.4c1.6 1.5 2.3 3.2 2.4 5.3 0.6-2.9 0.7-5.6 0.6-8.3z" fill="url(#cf)"/>
    <path d="M12.3 12.1c0.2 2.7 2 3.8 3.3 5.4 1.1 1.4 1.5 2.8 1.5 4.3 0 3.2-2.3 5.6-5.1 5.6s-5.1-2.4-5.1-5.6c0-1.8 0.7-3.1 1.7-4.2 1.2-1.4 2-2.2 2.2-3.9 0.8 0.8 1.2 1.7 1.2 2.8 0.3-1.5 0.4-2.9 0.3-4.4z" fill="url(#cd)"/>
  </g>
</svg>
